<?xml version="1.0" encoding="UTF-8" standalone="no"?>
<!-- Created with Inkscape (http://www.inkscape.org/) -->

<svg
   width="25.000004mm"
   height="8.9337339mm"
   viewBox="0 0 25.000004 8.9337339"
   version="1.1"
   id="svg1"
   xml:space="preserve"
   inkscape:export-filename="bitmap.svg"
   inkscape:export-xdpi="96"
   inkscape:export-ydpi="96"
   inkscape:version="1.4.2 (ebf0e940d0, 2025-05-08)"
   sodipodi:docname="logo.svg"
   xmlns:inkscape="http://www.inkscape.org/namespaces/inkscape"
   xmlns:sodipodi="http://sodipodi.sourceforge.net/DTD/sodipodi-0.dtd"
   xmlns="http://www.w3.org/2000/svg"
   xmlns:svg="http://www.w3.org/2000/svg"><sodipodi:namedview
     id="namedview1"
     pagecolor="#ffffff"
     bordercolor="#000000"
     borderopacity="0.25"
     inkscape:showpageshadow="2"
     inkscape:pageopacity="0.0"
     inkscape:pagecheckerboard="0"
     inkscape:deskcolor="#d1d1d1"
     inkscape:document-units="mm"
     inkscape:zoom="6.770732"
     inkscape:cx="57.970098"
     inkscape:cy="17.132564"
     inkscape:window-width="1920"
     inkscape:window-height="1080"
     inkscape:window-x="0"
     inkscape:window-y="0"
     inkscape:window-maximized="0"
     inkscape:current-layer="layer1" /><defs
     id="defs1"><rect
       x="469.34589"
       y="557.34827"
       width="393.4223"
       height="471.07141"
       id="rect3" /><rect
       x="186.74915"
       y="74.923309"
       width="336.59576"
       height="436.12073"
       id="rect2" /><rect
       x="212.46909"
       y="-12.300841"
       width="334.35922"
       height="514.3988"
       id="rect1" /></defs><g
     inkscape:label="F.SilkS"
     inkscape:groupmode="layer"
     id="layer1"
     transform="translate(-92.499998,-144.03313)"><g
       id="g3"
       transform="translate(-1.0099591,-46.345774)"><text
         xml:space="preserve"
         transform="scale(0.26458333)"
         id="text1"
         style="text-align:start;writing-mode:lr-tb;direction:ltr;white-space:pre;shape-inside:url(#rect1);fill:#000000" /><path
         d="m 109.66172,197.44702 c 0,0.005 -0.005,0.01 -0.01,0.01 h -0.23492 c -0.005,0 -0.01,-0.005 -0.01,-0.01 v -1.57946 c 0,-0.005 0.005,-0.01 0.01,-0.01 h 0.23492 c 0.005,0 0.01,0.005 0.01,0.01 z m 0.51982,0.80473 c 0.34489,0 0.51983,-0.12996 0.51983,-0.39487 v -2.39418 c 0,-0.26991 -0.17494,-0.40486 -0.51983,-0.40486 h -1.29456 c -0.34488,0 -0.51982,0.13495 -0.51982,0.40486 v 2.39418 c 0,0.26491 0.17494,0.39487 0.51982,0.39487 z m 2.0543,-0.79473 h -0.24492 c -0.005,0 -0.01,-0.005 -0.01,-0.01 v -0.47984 c 0,-0.005 0.005,-0.01 0.01,-0.01 h 0.24492 z m 1.03964,0.79473 v -2.78905 c 0,-0.26991 -0.17493,-0.40486 -0.51982,-0.40486 h -1.29456 c -0.34488,0 -0.51982,0.13495 -0.51982,0.40486 v 0.5898 h 1.03965 v -0.18494 c 0,-0.005 0.005,-0.01 0.01,-0.01 h 0.23492 c 0.005,0 0.01,0.005 0.01,0.01 v 0.38987 h -0.77473 c -0.34489,0 -0.51983,0.12995 -0.51983,0.39486 v 1.20459 c 0,0.26491 0.17494,0.39487 0.51983,0.39487 z m 5.16825,0.99466 v -0.79473 h -2.56913 c -0.005,0 -0.01,-0.005 -0.01,-0.01 v -1.52449 c 0,-0.15494 -0.085,-0.23991 -0.25991,-0.2649 0.16994,-0.02 0.25491,-0.10497 0.25491,-0.25992 v -0.92968 c 0,-0.26991 -0.16994,-0.40486 -0.51482,-0.40486 h -1.81438 v 3.19391 h 1.03964 v -1.27956 h 0.24492 c 0.005,0 0.01,0.005 0.01,0.01 v 1.86936 c 0,0.26491 0.17495,0.39487 0.51983,0.39487 z m -3.61877,-2.91901 c 0,0.005 -0.005,0.01 -0.01,0.01 h -0.24492 v -0.47984 h 0.24492 c 0.005,0 0.01,0.005 0.01,0.01 z m 3.61877,1.92435 v -3.99364 h -1.03965 v 0.79973 h -0.77473 c -0.34489,0 -0.51983,0.13495 -0.51983,0.40486 v 2.39418 c 0,0.26491 0.15995,0.39487 0.51983,0.39487 z m -1.03965,-0.79473 h -0.24492 c -0.005,0 -0.01,-0.005 -0.01,-0.01 v -1.57946 c 0,-0.005 0.005,-0.01 0.01,-0.01 h 0.24492 z"
         id="text2"
         style="font-weight:900;font-size:48px;font-family:Pricedown;-inkscape-font-specification:'Pricedown, Heavy';white-space:pre;fill:none;fill-opacity:1;stroke:#000000;stroke-width:0.132462;stroke-dasharray:none;stroke-opacity:1"
         aria-label="oard" /><g
         style="fill:#000000"
         id="g2"
         transform="matrix(0.2920591,0,0,0.2920591,93.217022,190.08568)"><path
           d="m 26.445,22.095 0.592,-0.649 h 1.667 l 0.386,0.519 -1.581,5.132 h 0.616 l -0.1,0.261 h -2.228 l 1.405,-4.454 h -2.518 l -1.346,4.238 h 0.53 l -0.091,0.217 h -2.006 l 1.383,-4.434 h -2.619 l -1.327,4.172 h 0.545 l -0.09,0.261 h -2.076 l 1.892,-5.573 h -0.732 l 0.114,-0.339 h 2.062 l 0.649,0.671 h 1.132 l 0.614,-0.692 h 1.326 l 0.611,0.669 z M 7.99,27.033 H 5.849 L 5.522,26.846 V 4.867 H 3.977 L 3.852,4.742 V 3.272 L 4.031,3.08 h 9.211 l 0.266,0.267 V 4.732 L 13.331,4.948 H 11.983 V 15.805 L 22.989,4.948 H 20.382 L 20.163,4.713 V 3.26 l 0.151,-0.139 h 9.36 l 0.165,0.166 V 4.624 L 17.224,17.561 h -0.466 c -0.005,0 -0.011,0 -0.018,0 -0.012,0 -0.024,0.001 -0.036,0.002 h 0.002 l -0.025,0.004 c -0.058,0.012 -0.108,0.039 -0.149,0.075 v 0 l -0.429,0.369 -0.005,0.004 c -0.04,0.037 -0.072,0.084 -0.09,0.136 l -10e-4,0.002 -0.37,1.037 z m 9.926,-9.005 0.187,0.189 -0.336,1.152 -0.281,0.282 h -1.211 l -0.226,-0.226 0.389,-1.088 0.36,-0.309 z m -4.618,9.392 1.973,-5.635 h -0.626 l 0.371,-0.38 h 2.073 l -1.953,5.692 h 0.779 l -0.099,0.322 z M 30.996,15.982 H 30.962 L 25.566,10.586 30.943,5.07 V 2.83 L 30.132,2.02 H 19.887 L 19.062,2.776 V 4.082 L 16.018,1.038 V 1.004 L 15.999,1.022 15.981,1.004 V 1.038 L 14.369,2.651 13.697,1.978 H 3.546 L 2.749,2.843 v 2.356 l 0.77,0.77 h 0.9 v 6.636 l -3.382,3.38 H 1.003 l 0.018,0.016 -0.018,0.017 H 1.037 L 4.419,19.4 v 8.081 l 1.133,0.654 h 2.902 l 2.321,-2.379 5.206,5.206 v 0.035 L 16,30.98 l 0.017,0.017 v -0.035 l 3.136,-3.135 h 0.606 c 0.144,-0.001 0.266,-0.093 0.312,-0.221 l 10e-4,-0.002 0.182,-0.532 c 0.011,-0.031 0.017,-0.067 0.017,-0.105 0,-0.073 -0.024,-0.14 -0.064,-0.195 l 10e-4,0.001 1.827,-1.827 -0.765,2.452 c -0.009,0.029 -0.015,0.063 -0.015,0.097 0,0.149 0.098,0.275 0.233,0.317 l 0.002,10e-4 c 0.029,0.009 0.063,0.015 0.097,0.015 0,0 0,0 0,0 h 2.279 c 0.136,-10e-4 0.252,-0.084 0.303,-0.201 l 0.001,-0.002 0.206,-0.492 c 0.014,-0.036 0.022,-0.077 0.022,-0.121 0,-0.048 -0.01,-0.094 -0.028,-0.135 l 10e-4,0.002 c -0.035,-0.082 -0.1,-0.145 -0.18,-0.177 l -0.002,-0.001 c -0.036,-0.015 -0.077,-0.024 -0.121,-0.025 h -0.094 l 1.05,-3.304 h 1.54 l -1.27,4.025 c -0.009,0.029 -0.015,0.063 -0.015,0.097 0,0.149 0.098,0.274 0.232,0.317 l 0.002,0.001 c 0.029,0.009 0.063,0.015 0.098,0.015 0,0 10e-4,0 10e-4,0 h 2.502 c 0,0 10e-4,0 10e-4,0 0.14,0 0.26,-0.087 0.308,-0.21 l 0.001,-0.002 0.205,-0.535 c 0.013,-0.034 0.02,-0.073 0.02,-0.114 0,-0.142 -0.09,-0.264 -0.215,-0.311 l -0.002,-0.001 c -0.034,-0.013 -0.073,-0.021 -0.114,-0.021 h -0.181 l 1.413,-4.59 c 0.011,-0.031 0.017,-0.066 0.017,-0.103 0,-0.074 -0.025,-0.143 -0.066,-0.198 l 10e-4,10e-4 -0.469,-0.63 -0.004,-0.006 C 28.968,21.029 28.873,20.98 28.768,20.98 h -1.795 c -0.093,0 -0.177,0.039 -0.237,0.101 v 0 l -0.5,0.549 h -0.78 l -0.052,-0.057 5.555,-5.555 h 0.035 l -0.017,-0.014 z"
           id="path1" /></g><path
         d="m 105.57728,193.72443 c 0,0.012 -0.0118,0.0239 -0.0236,0.0239 h -0.57848 v -1.14902 h 0.57848 c 0.0118,0 0.0236,0.012 0.0236,0.0239 z m 1.22777,4.60806 c 0.81458,0 1.22778,-0.3112 1.22778,-0.94555 v -2.25017 c 0,-0.37104 -0.2007,-0.57451 -0.61389,-0.63435 0.40139,-0.0479 0.60208,-0.25135 0.60208,-0.62239 v -2.22623 c 0,-0.64633 -0.40139,-0.96949 -1.21597,-0.96949 h -4.28541 v 7.64818 z m -1.22777,-1.92701 c 0,0.012 -0.0118,0.0239 -0.0236,0.0239 h -0.57848 v -1.16099 h 0.57848 c 0.0118,0 0.0236,0.012 0.0236,0.0239 z"
         id="text3"
         style="font-weight:900;font-size:192px;font-family:Pricedown;-inkscape-font-specification:'Pricedown, Heavy';white-space:pre;fill:none;fill-opacity:1;stroke:#000000;stroke-width:0.264923;stroke-dasharray:none;stroke-opacity:1"
         aria-label="B" /></g></g></svg>
