0
SECTION
2
HEADER
9
$INSUNITS
70
4
0
ENDSEC
0
SECTION
2
TABLES
0
TABLE
2
LTYPE
0
LTYPE
72
65
70
64
2
CONTINUOUS
3
______
73
0
40
0
0
ENDTAB
0
TABLE
2
LAYER
0
ENDTAB
0
ENDSEC
0
SECTION
2
ENTITIES
0
LINE
8
0
10
-5.2080424
20
-12.0052612
11
11.7064249
21
-5.8488986
0
LINE
8
0
10
12.90177
20
-3.2854732
11
12.2177296
21
-1.4060878
0
LINE
8
0
10
2.3889643
20
10.9792007
11
-11.7064249
21
5.8488986
0
LINE
8
0
10
-12.90177
20
3.2854732
11
-7.7714678
21
-10.8099162
0
LINE
8
0
10
13.4130746
20
1.1573377
11
24.6893861
21
5.2615794
0
LINE
8
0
10
23.9155268
20
22.0067621
11
23.5735067
21
22.9464546
0
LINE
8
0
10
21.0100813
20
24.1417996
11
4.095614
21
17.985437
0
LINE
8
0
10
2.9002689
20
15.4220116
11
3.5843093
21
13.5426262
0
LINE
8
0
10
30.158257
20
1.9311969
11
45.8531999
21
7.6436889
0
LINE
8
0
10
46.0136185
20
16.8450377
11
43.1377672
21
24.7463743
0
LINE
8
0
10
40.5743418
20
25.9417193
11
26.4789522
21
20.8114171
0
LINE
8
0
10
27.2528115
20
4.0662344
11
27.5948316
21
3.1265419
0
LINE
8
0
10
52.9857687
20
-2.8471196
11
70.3724335
21
1.8116231
0
LINE
8
0
10
71.7866472
20
4.2611128
11
67.9043616
21
18.7500001
0
LINE
8
0
10
65.4548719
20
20.1642138
11
48.4106418
21
15.5972262
0
LINE
8
0
10
48.4690918
20
6.2819417
11
50.536279
21
-1.4329059
0
ARC
8
0
10
11.0223847
20
-3.9695134
40
2
50
289.9999981
51
19.9999981
0
ARC
8
0
10
14.0971148
20
-0.7220476
40
2
50
109.9999981
51
199.9999981
0
ARC
8
0
10
25.3734263
20
3.3821942
40
2
50
19.9999981
51
109.9999981
0
ARC
8
0
10
29.4742168
20
3.8105821
40
2
50
199.9999981
51
289.9999981
0
ARC
8
0
10
46.5372401
20
5.7643037
40
2
50
14.9999979
51
109.9999981
0
ARC
8
0
10
52.4681307
20
-0.9152679
40
2
50
194.9999979
51
284.9999979
0
ARC
8
0
10
69.8547955
20
3.7434748
40
2
50
284.9999979
51
14.9999979
0
ARC
8
0
10
65.9725099
20
18.2323621
40
2
50
14.9999979
51
104.9999979
0
ARC
8
0
10
47.8930038
20
17.5290779
40
2
50
199.9999981
51
284.9999979
0
ARC
8
0
10
41.258382
20
24.0623341
40
2
50
19.9999981
51
109.9999981
0
ARC
8
0
10
25.794912
20
22.6908023
40
2
50
199.9999981
51
289.9999981
0
ARC
8
0
10
21.6941215
20
22.2624144
40
2
50
19.9999981
51
109.9999981
0
ARC
8
0
10
4.7796542
20
16.1060518
40
2
50
109.9999981
51
199.9999981
0
ARC
8
0
10
1.7049241
20
12.858586
40
2
50
289.9999981
51
19.9999981
0
ARC
8
0
10
-11.0223847
20
3.9695134
40
2
50
109.9999981
51
199.9999981
0
ARC
8
0
10
-5.8920826
20
-10.125876
40
2
50
199.9999981
51
289.9999981
0
ENDSEC
0
EOF